# xmcd CD database file
#
# Track frame offsets:
#	150
#	9472
#	23627
#	39377
#	67874
#	98737
#	133961
#	156869
#	174811
#	189214
#	205566
#	226505
#	252940
#	290772
#
# Disc length: 4440 seconds
#
# Revision: 1
# Processed by: cddbd v1.5.1PL0 Copyright (c) Steve Scherf et al.
# Submitted via: CDex 1.51
#
DISCID=a611560e
DTITLE=Jon Lord With The Hoochie Coochie Men - Live At The Basement [CD 1)
DYEAR=2003
DGENRE=Blues
TTITLE0=Introduction
TTITLE1=Hideaway
TTITLE2=Lonesome Traveller Blues
TTITLE3=Blues With A Feeling
TTITLE4=You Got Good Business
TTITLE5=Green Onions
TTITLE6=24/7 Blues
TTITLE7=Baby Please Don't Go
TTITLE8=The Money Doesn't Matter
TTITLE9=Strange Brew
TTITLE10=Dallas
TTITLE11=I Just Wanna Make Love To You
TTITLE12=You Need Love
TTITLE13=DATA
EXTD=Featuring Jon Lord and Bob Daisley YEAR: 2003
EXTT0=
EXTT1=
EXTT2=
EXTT3=
EXTT4=
EXTT5=
EXTT6=
EXTT7=
EXTT8=
EXTT9=
EXTT10=
EXTT11=
EXTT12=
EXTT13=
PLAYORDER=
